# AST/ASF file generated using VICON BodyLanguage
# -----------------------------------------------
:version 1.10
:name VICON
:units
  mass 1.0
  length 0.45
  angle deg
:documentation
   .ast/.asf automatically generated from VICON data using
   VICON BodyBuilder and BodyLanguage model FoxedUp or BRILLIANT.MOD
:root
   order TX TY TZ RX RY RZ
   axis XYZ
   position 0 0 0  
   orientation 0 0 0 
:bonedata
  begin
     id 1 
     name lhipjoint
     direction 0.567725 -0.736092 0.368589 
     length 2.42353 
     axis 0 0 0  XYZ
  end
  begin
     id 2 
     name lfemur
     direction 0.34202 -0.939693 0  
     length 7.24894  
     axis 0 0 20  XYZ
    dof rx ry rz
    limits (-160.0 20.0)
           (-70.0 70.0)
           (-60.0 70.0)
  end
  begin
     id 3 
     name ltibia
     direction 0.34202 -0.939693 0   
     length 7.6997   
     axis 0 0 20   XYZ
    dof rx
    limits (-10.0 170.0)
  end
  begin
     id 4 
     name lfoot
     direction 0.100767 -0.276854 0.955614   
     length 2.37556   
     axis -90 7.62852e-016 20   XYZ
    dof rx rz
    limits (-45.0 90.0)
           (-70.0 20.0)
  end
  begin
     id 5 
     name ltoes
     direction 1.53592e-011 -4.21894e-011 1   
     length 1.18363   
     axis -90 7.62852e-016 20   XYZ
    dof rx
    limits (-90.0 20.0)
  end
  begin
     id 6 
     name rhipjoint
     direction -0.556459 -0.742938 0.372017   
     length 2.4012  
     axis 0 0 0  XYZ 
  end
  begin
     id 7 
     name rfemur
     direction -0.34202 -0.939693 0   
     length 7.5119   
     axis 0 0 -20   XYZ
    dof rx ry rz
    limits (-160.0 20.0)
           (-70.0 70.0)
           (-70.0 60.0)
  end
  begin
     id 8 
     name rtibia
     direction -0.34202 -0.939693 0   
     length 7.50155   
     axis 0 0 -20   XYZ
    dof rx
    limits (-10.0 170.0)
 end
 begin
     id 9 
     name rfoot
     direction -0.118427 -0.325376 0.938139   
     length 2.32487  
     axis -90 -7.62852e-016 -20   XYZ
    dof rx rz
    limits (-45.0 90.0)
           (-20.0 70.0)
  end
  begin
     id 10 
     name rtoes
     direction -1.53525e-011 -4.21868e-011 1   
     length 1.15233   
     axis -90 -7.62852e-016 -20   XYZ
    dof rx
    limits (-90.0 20.0)
  end
  begin
     id 11 
     name lowerback
     direction 0.0287568 0.999577 -0.00434502   
     length 2.15243   
     axis 0 0 0   XYZ
    dof rx ry rz
    limits (-20.0 45.0)
           (-30.0 30.0)
           (-30.0 30.0)
  end
  begin
     id 12 
     name upperback
     direction 0.0294009 0.99956 0.00404628   
     length 2.15427   
     axis 0 0 0   XYZ
    dof rx ry rz
    limits (-20.0 45.0)
           (-30.0 30.0)
           (-30.0 30.0)
  end
  begin
     id 13 
     name thorax
     direction 0.0151014 0.999868 0.0059419   
     length 2.14898   
     axis 0 0 0   XYZ
    dof rx ry rz
    limits (-20.0 45.0)
           (-30.0 30.0)
           (-30.0 30.0)
  end
  begin
     id 14 
     name lowerneck
     direction -0.0249197 0.989906 0.139515   
     length 1.6861   
     axis 0 0 0   XYZ
    dof rx ry rz
    limits (-20.0 45.0)
           (-30.0 30.0)
           (-30.0 30.0)
  end
  begin
     id 15 
     name upperneck
     direction 0.0438463 0.988795 -0.142693   
     length 1.71276   
     axis 0 0 0   XYZ
    dof rx ry rz
    limits (-20.0 45.0)
           (-30.0 30.0)
           (-30.0 30.0)
  end
  begin
     id 16
     name head
     direction 0.0148499 0.997845 -0.0639186  
     length 1.7209  
     axis 0 0 0   XYZ
    dof rx ry rz
    limits (-20.0 45.0)
           (-30.0 30.0)
           (-30.0 30.0)
  end
  begin
     id 17 
     name lclavicle
     direction 0.940298 0.323464 -0.105876  
     length 3.9048  
     axis 0 0 0   XYZ
    dof ry rz
    limits (-20.0 10.0)
           (0.0 20.0)
  end
  begin
     id 18 
     name lhumerus
     direction 1 -4.48954e-011 -4.9675e-028   
     length 4.6851   
     axis 180 -30 -90   XYZ
    dof rx ry rz
    limits (-60.0 90.0)
           (-90.0 90.0)
           (-90.0 90.0)
  end
  begin
     id 19
     name lradius
     direction 1 -4.48992e-011 -1.03359e-026   
     length 3.39626   
     axis 180 -30 -90   XYZ
    dof rx
    limits (-10.0 170.0)
  end
  begin
     id 20
     name lwrist
     direction 1 -4.48906e-011 -1.67336e-026   
     length 1.69813   
     axis 9.90442e-015 90 90   XYZ
    dof ry
    limits (-180.0 0.0)
 end
  begin
     id 21 
     name lhand
     direction 1 -4.49006e-011 -3.34673e-026   
     length 0.486078   
     axis 2.1355e-014 90 90   XYZ
    dof rx rz
    limits (-90.0 90.0)
           (-45.0 45.0)
  end
  begin
     id 22 
     name lfingers
     direction 1 -4.48992e-011 -6.69345e-026   
     length 0.391889   
     axis 4.27099e-014 90 90   XYZ
    dof rx
    limits (0.0 90.0)
  end
  begin
     id 23
     name lthumb
     direction 0.707107 -6.34926e-011 0.707107   
     length 0.562676   
     axis -90 45 2.85299e-015   XYZ
    dof rx rz
    limits (-45.0 45.0)
           (-45.0 45.0)
  end
  begin
     id 24 
     name rclavicle
     direction -0.882459 0.414895 -0.221648   
     length 3.44646  
     axis 0 0 0   XYZ 
    dof ry rz
    limits (-10.0 20.0)
           (-20.0 0.0)
  end
  begin
     id 25 
     name rhumerus
     direction -1 -4.48962e-011 -2.37984e-027  
     length 5.55576   
     axis 180 30 90   XYZ
    dof rx ry rz
    limits (-90.0 60.0)
           (-90.0 90.0)
           (-90.0 90.0)
  end
  begin
     id 26 
     name rradius
     direction -1 -4.48982e-011 -6.86791e-027   
     length 3.32774   
     axis 180 30 90   XYZ
    dof rx
    limits (-10.0 170.0)
  end
  begin
     id 27 
     name rwrist
     direction -1 -4.48961e-011 -1.67336e-026   
     length 1.66387   
     axis 9.90442e-015 -90 -90   XYZ
    dof ry
    limits (-180.0 0.0)
  end
  begin
     id 28
     name rhand
     direction -1 -4.4897e-011 -3.34673e-026   
     length 0.507628   
     axis 2.1355e-014 -90 -90   XYZ
    dof rx rz
    limits (-90.0 90.0)
           (-45.0 45.0)
  end
  begin
     id 29
     name rfingers
     direction -1 -4.48854e-011 -6.69345e-026   
     length 0.409263   
     axis 4.27099e-014 -90 -90   XYZ
    dof rx
    limits (0.0 90.0)
  end
  begin
     id 30
     name rthumb
     direction -0.707107 -6.34913e-011 0.707107   
     length 0.587622   
     axis -90 -45 -2.85299e-015   XYZ
    dof rx rz
    limits (-45.0 45.0)
           (-45.0 45.0)
  end
:hierarchy
  begin
    root lhipjoint rhipjoint lowerback
    lhipjoint lfemur
    lfemur ltibia
    ltibia lfoot
    lfoot ltoes
    rhipjoint rfemur
    rfemur rtibia
    rtibia rfoot
    rfoot rtoes
    lowerback upperback
    upperback thorax
    thorax lowerneck lclavicle rclavicle
    lowerneck upperneck
    upperneck head
    lclavicle lhumerus
    lhumerus lradius
    lradius lwrist
    lwrist lhand lthumb
    lhand lfingers
    rclavicle rhumerus
    rhumerus rradius
    rradius rwrist
    rwrist rhand rthumb
    rhand rfingers
  end

#!OML:ASF E:\motion texture\Top Level 1\Subject 1\Session 1\male.ASF
:FULLY-SPECIFIED
:DEGREES
114
root 40.1044 17.7064 4.39128 123.746 -82.119 -113.615
lowerback -2.23272 0.432008 8.29031
upperback -3.60061 0.435436 3.09551
thorax -2.44112 -0.0127537 -1.43205
lowerneck -15.6325 -2.49487 -6.55741
upperneck 4.71397 -2.82302 8.09521
head 4.1461 -1.07836 3.34704
rclavicle 5.11871e-015 -2.82274e-014
rhumerus 6.9881 22.1395 -94.911
rradius 81.9032
rwrist -47.0599
rhand -8.96069 -56.2125
rfingers 7.12502
rthumb 16.9843 -85.49
lclavicle 5.11871e-015 -2.82274e-014
lhumerus -15.4648 -3.93875 102.398
lradius 31.3087
lwrist 22.8124
lhand 1.48202 36.9993
lfingers 7.12502
lthumb 27.0091 65.0882
rfemur -6.32724 2.45538 32.4372
rtibia 15.5754
rfoot -15.3525 -6.96275
rtoes 12.9147
lfemur -34.901 3.78928 -9.3793
ltibia 35.5245
lfoot -10.1819 5.61555
ltoes -10.6914
115
root 40.0358 17.7003 4.38512 124.222 -82.0516 -114.062
lowerback -2.26943 0.438856 8.30149
upperback -3.62006 0.441014 3.07395
thorax -2.44012 -0.0111257 -1.4603
lowerneck -15.552 -2.39657 -6.46438
upperneck 4.35738 -2.70622 8.15045
head 4.01515 -1.0228 3.35822
rclavicle -5.19325e-015 3.77691e-014
rhumerus 7.21371 22.0516 -94.8675
rradius 82.5444
rwrist -46.7625
rhand -9.0531 -56.2618
rfingers 7.12502
rthumb 16.8953 -85.5468
lclavicle -5.19325e-015 3.77691e-014
lhumerus -15.0616 -4.30204 102.488
lradius 31.6396
lwrist 23.3434
lhand 1.54106 37.0656
lfingers 7.12502
lthumb 27.0656 65.1458
rfemur -6.02764 2.40183 32.4589
rtibia 15.4467
rfoot -15.5238 -6.83112
rtoes 12.6065
lfemur -35.0578 3.75682 -9.26069
ltibia 34.5922
lfoot -9.84166 5.67907
ltoes -10.6762
116
root 39.9651 17.6935 4.37942 124.733 -81.9806 -114.544
lowerback -2.3016 0.445651 8.30867
upperback -3.64062 0.447106 3.05492
thorax -2.44281 -0.00929166 -1.48372
lowerneck -15.4661 -2.29621 -6.37925
upperneck 3.98186 -2.58516 8.21412
head 3.87779 -0.965668 3.3734
rclavicle 1.22874e-014 -2.34566e-014
rhumerus 7.36344 21.9577 -94.8372
rradius 83.1243
rwrist -46.4953
rhand -9.16891 -56.3364
rfingers 7.12502
rthumb 16.7838 -85.6309
lclavicle 1.22874e-014 -2.34566e-014
lhumerus -14.6406 -4.65425 102.567
lradius 31.9821
lwrist 23.8839
lhand 1.585 37.1591
lfingers 7.12502
lthumb 27.1076 65.2328
rfemur -5.72725 2.34595 32.4776
rtibia 15.3288
rfoot -15.6946 -6.701
rtoes 12.2951
lfemur -35.1934 3.72053 -9.13675
ltibia 33.6284
lfoot -9.49764 5.75881
ltoes -10.6738
117
root 39.8925 17.686 4.37424 125.288 -81.9046 -115.067
lowerback -2.33462 0.452948 8.31457
upperback -3.6588 0.453631 3.03691
thorax -2.4425 -0.00703491 -1.50538
lowerneck -15.3861 -2.19433 -6.29504
upperneck 3.59543 -2.46111 8.27948
head 3.73814 -0.907555 3.38921
rclavicle 2.16178e-015 -1.27222e-014
rhumerus 7.44556 21.8592 -94.8203
rradius 83.6433
rwrist -46.2575
rhand -9.30902 -56.4363
rfingers 7.12502
rthumb 16.649 -85.7422
lclavicle 2.16178e-015 -1.27222e-014
lhumerus -14.1933 -4.99944 102.63
lradius 32.3353
lwrist 24.4347
lhand 1.59682 37.2834
lfingers 7.12502
lthumb 27.1189 65.3553
rfemur -5.42783 2.28764 32.493
rtibia 15.2231
rfoot -15.8644 -6.57079
rtoes 11.9754
lfemur -35.3095 3.68077 -9.00682
ltibia 32.6403
lfoot -9.15625 5.85341
ltoes -10.6694
118
root 39.8179 17.6778 4.36963 125.885 -81.8245 -115.634
lowerback -2.37602 0.458277 8.31956
upperback -3.68186 0.45668 3.02101
thorax -2.44288 -0.00672352 -1.52431
lowerneck -15.2553 -2.08505 -6.22204
upperneck 3.17565 -2.3263 8.35484
head 3.58015 -0.845706 3.41054
rclavicle -4.09993e-015 -3.57812e-014
rhumerus 7.44024 21.7652 -94.8257
rradius 84.1059
rwrist -46.0534
rhand -9.46584 -56.5636
rfingers 7.12502
rthumb 16.498 -85.8822
lclavicle -4.09993e-015 -3.57812e-014
lhumerus -13.7361 -5.32324 102.677
lradius 32.7014
lwrist 24.9927
lhand 1.57327 37.4338
lfingers 7.12502
lthumb 27.0964 65.5092
rfemur -5.13008 2.2264 32.5034
rtibia 15.1308
rfoot -16.0336 -6.43954
rtoes 11.6542
lfemur -35.4073 3.63706 -8.87301
ltibia 31.6352
lfoot -8.81881 5.96275
ltoes -10.6559
119
root 39.7413 17.669 4.36556 126.531 -81.7368 -116.247
lowerback -2.42785 0.465196 8.32642
upperback -3.69479 0.460087 3.00498
thorax -2.42675 -0.00540639 -1.54443
lowerneck -15.1329 -1.97388 -6.15283
upperneck 2.73768 -2.18753 8.4382
head 3.41816 -0.782332 3.43489
rclavicle 1.01256e-014 -1.39149e-014
rhumerus 7.38605 21.67 -94.8412
rradius 84.5091
rwrist -45.8782
rhand -9.64106 -56.7162
rfingers 7.12502
rthumb 16.3293 -86.0487
lclavicle 1.01256e-014 -1.39149e-014
lhumerus -13.2382 -5.65051 102.706
lradius 33.0804
lwrist 25.5647
lhand 1.52448 37.6066
lfingers 7.12502
lthumb 27.0497 65.6893
rfemur -4.83515 2.1654 32.5117
rtibia 15.0544
rfoot -16.2008 -6.30727
rtoes 11.3317
lfemur -35.4887 3.59283 -8.73211
ltibia 30.6226
lfoot -8.48662 6.08898
ltoes -10.6373
120
root 39.6627 17.6595 4.36208 127.226 -81.6437 -116.91
lowerback -2.47622 0.47231 8.33005
upperback -3.70947 0.464238 2.99077
thorax -2.41435 -0.00381832 -1.56086
lowerneck -15.0033 -1.86032 -6.08842
upperneck 2.28834 -2.04434 8.52473
head 3.25169 -0.717614 3.46097
rclavicle -1.45113e-014 -2.38542e-015
rhumerus 7.2621 21.5764 -94.8708
rradius 84.8545
rwrist -45.7356
rhand -9.83327 -56.8905
rfingers 7.12502
rthumb 16.1442 -86.2381
lclavicle -1.45113e-014 -2.38542e-015
lhumerus -12.7166 -5.97241 102.72
lradius 33.4742
lwrist 26.1456
lhand 1.46208 37.8056
lfingers 7.12502
lthumb 26.99 65.8975
rfemur -4.54228 2.10268 32.5144
rtibia 14.9938
rfoot -16.3645 -6.17354
rtoes 11.0086
lfemur -35.5527 3.546 -8.58793
ltibia 29.6087
lfoot -8.16205 6.23183
ltoes -10.6133
121
root 39.5822 17.6495 4.35923 127.954 -81.5441 -117.606
lowerback -2.52236 0.479265 8.33293
upperback -3.72364 0.468373 2.97887
thorax -2.40269 -0.00222743 -1.5745
lowerneck -14.8713 -1.74414 -6.02777
upperneck 1.82778 -1.89624 8.61231
head 3.08147 -0.651348 3.48796
rclavicle 1.16786e-015 -1.98785e-015
rhumerus 7.07385 21.488 -94.9106
rradius 85.144
rwrist -45.628
rhand -10.0338 -57.0745
rfingers 7.12502
rthumb 15.9511 -86.4377
lclavicle 1.16786e-015 -1.98785e-015
lhumerus -12.1649 -6.29235 102.718
lradius 33.8814
lwrist 26.7338
lhand 1.38677 38.0308
lfingers 7.12502
lthumb 26.918 66.1338
rfemur -4.25265 2.03782 32.5133
rtibia 14.9522
rfoot -16.5241 -6.03815
rtoes 10.6815
lfemur -35.6014 3.49667 -8.43923
ltibia 28.6019
lfoot -7.84709 6.39013
ltoes -10.5917
122
root 39.4996 17.6389 4.35705 128.728 -81.4383 -118.349
lowerback -2.57633 0.486838 8.33555
upperback -3.73178 0.472101 2.96726
thorax -2.38036 -0.000282503 -1.5877
lowerneck -14.738 -1.62553 -5.97235
upperneck 1.35516 -1.74359 8.70632
head 2.90751 -0.583532 3.51773
rclavicle 3.26752e-015 -2.14687e-014
rhumerus 6.83394 21.4047 -94.9604
rradius 85.3787
rwrist -45.5557
rhand -10.2452 -57.2697
rfingers 7.12502
rthumb 15.7475 -86.6491
lclavicle 3.26752e-015 -2.14687e-014
lhumerus -11.5741 -6.61566 102.698
lradius 34.3026
lwrist 27.3313
lhand 1.29304 38.2883
lfingers 7.12502
lthumb 26.8283 66.4052
rfemur -3.96709 1.9713 32.5054
rtibia 14.9311
rfoot -16.6789 -5.89834
rtoes 10.3526
lfemur -35.6347 3.44641 -8.28925
ltibia 27.6085
lfoot -7.54126 6.56282
ltoes -10.5728
123
root 39.4149 17.6278 4.35553 129.536 -81.3258 -119.126
lowerback -2.63116 0.494856 8.33781
upperback -3.73804 0.476204 2.9567
thorax -2.35555 0.00200161 -1.5996
lowerneck -14.6053 -1.50514 -5.92004
upperneck 0.875298 -1.58742 8.80233
head 2.73157 -0.514743 3.54846
rclavicle -1.09829e-014 7.55382e-015
rhumerus 6.53941 21.3271 -95.0203
rradius 85.5612
rwrist -45.521
rhand -10.4714 -57.4886
rfingers 7.12502
rthumb 15.5296 -86.885
lclavicle -1.09829e-014 7.55382e-015
lhumerus -10.9475 -6.94429 102.659
lradius 34.7378
lwrist 27.936
lhand 1.18319 38.5793
lfingers 7.12502
lthumb 26.7232 66.7123
rfemur -3.68663 1.90375 32.4922
rtibia 14.9325
rfoot -16.8282 -5.75528
rtoes 10.0169
lfemur -35.6546 3.3941 -8.1369
ltibia 26.6365
lfoot -7.24482 6.74866
ltoes -10.5545
124
root 39.3281 17.6162 4.3547 130.378 -81.207 -119.939
lowerback -2.68646 0.503482 8.33791
upperback -3.74362 0.481017 2.94783
thorax -2.32972 0.00474967 -1.60855
lowerneck -14.4661 -1.38296 -5.87242
upperneck 0.386494 -1.42752 8.89947
head 2.55196 -0.445086 3.58015
rclavicle 4.50993e-015 -1.27222e-014
rhumerus 6.19106 21.2565 -95.0885
rradius 85.6936
rwrist -45.5234
rhand -10.7027 -57.7258
rfingers 7.12502
rthumb 15.3069 -87.1393
lclavicle 4.50993e-015 -1.27222e-014
lhumerus -10.2865 -7.2797 102.604
lradius 35.1886
lwrist 28.548
lhand 1.05898 38.9016
lfingers 7.12502
lthumb 26.6043 67.0526
rfemur -3.41051 1.83469 32.4715
rtibia 14.9569
rfoot -16.9702 -5.60716
rtoes 9.67731
lfemur -35.6603 3.33941 -7.98437
ltibia 25.6914
lfoot -6.95839 6.94412
ltoes -10.5363
125
root 39.2391 17.6042 4.35462 131.247 -81.0823 -120.78
lowerback -2.7467 0.511886 8.33833
upperback -3.74659 0.484795 2.93946
thorax -2.29847 0.00723057 -1.61715
lowerneck -14.3169 -1.25787 -5.83185
upperneck -0.110787 -1.2624 9.00352
head 2.36828 -0.373693 3.61503
rclavicle -7.36746e-015 -4.49253e-014
rhumerus 5.79366 21.1961 -95.1663
rradius 85.7771
rwrist -45.5624
rhand -10.9292 -57.9785
rfingers 7.12502
rthumb 15.0887 -87.4085
lclavicle -7.36746e-015 -4.49253e-014
lhumerus -9.58784 -7.6224 102.527
lradius 35.6548
lwrist 29.1659
lhand 0.92353 39.256
lfingers 7.12502
lthumb 26.4747 67.4267
rfemur -3.13925 1.7638 32.4425
rtibia 15.0064
rfoot -17.1038 -5.45307
rtoes 9.33288
lfemur -35.6521 3.28056 -7.8323
ltibia 24.7782
lfoot -6.67717 7.14579
ltoes -10.5055
126
root 39.1479 17.592 4.35525 132.138 -80.9508 -121.644
lowerback -2.80591 0.521053 8.33823
upperback -3.74773 0.489612 2.93212
thorax -2.26581 0.0103552 -1.6244
lowerneck -14.1736 -1.13259 -5.79372
upperneck -0.606712 -1.09597 9.1073
head 2.18608 -0.302279 3.64991
rclavicle 1.42752e-014 -9.93923e-015
rhumerus 5.35323 21.145 -95.2502
rradius 85.815
rwrist -45.6352
rhand -11.1577 -58.2352
rfingers 7.12502
rthumb 14.8686 -87.6816
lclavicle 1.42752e-014 -9.93923e-015
lhumerus -8.84717 -7.97751 102.429
lradius 36.1355
lwrist 29.7873
lhand 0.78527 39.6358
lfingers 7.12502
lthumb 26.3423 67.8263
rfemur -2.87453 1.69342 32.4061
rtibia 15.0833
rfoot -17.2281 -5.29254
rtoes 8.98487
lfemur -35.6313 3.21678 -7.6794
ltibia 23.9026
lfoot -6.39804 7.35304
ltoes -10.4453
127
root 39.0545 17.5795 4.35667 133.053 -80.814 -122.535
lowerback -2.86047 0.530608 8.3345
upperback -3.75135 0.495628 2.92672
thorax -2.23827 0.0139174 -1.62761
lowerneck -14.0244 -1.00604 -5.75917
upperneck -1.10292 -0.926731 9.20877
head 2.00287 -0.230362 3.68442
rclavicle -1.23992e-014 4.49253e-014
rhumerus 4.86405 21.1055 -95.3398
rradius 85.8121
rwrist -45.7367
rhand -11.3815 -58.4953
rfingers 7.12502
rthumb 14.6529 -87.9576
lclavicle -1.23992e-014 4.49253e-014
lhumerus -8.07062 -8.34091 102.313
lradius 36.6304
lwrist 30.4068
lhand 0.655459 40.0512
lfingers 7.12502
lthumb 26.218 68.2603
rfemur -2.61686 1.62385 32.3594
rtibia 15.1898
rfoot -17.3409 -5.12542
rtoes 8.62261
lfemur -35.5984 3.14727 -7.52933
ltibia 23.0687
lfoot -6.11992 7.57155
ltoes -10.3806
